<svg viewBox="0 0 820 700" xmlns="http://www.w3.org/2000/svg" font-family="Arial, sans-serif">
  <rect width="820" height="700" fill="#ffffff"/>

  <!-- TITLE -->
  <text x="410" y="26" fill="#1a1a1a" font-size="17" font-weight="bold" text-anchor="middle">Network topology</text>

  <!-- ── SECURE HOMELAB PROJECT (top-left building icon) ── -->
  <g transform="translate(28,42)">
    <rect x="0" y="16" width="13" height="20" fill="none" stroke="#2e6da4" stroke-width="1.5"/>
    <rect x="2" y="18" width="3" height="3" fill="#2e6da4"/><rect x="7" y="18" width="3" height="3" fill="#2e6da4"/>
    <rect x="2" y="23" width="3" height="3" fill="#2e6da4"/><rect x="7" y="23" width="3" height="3" fill="#2e6da4"/>
    <rect x="15" y="8" width="15" height="28" fill="none" stroke="#2e6da4" stroke-width="1.5"/>
    <rect x="17" y="10" width="3" height="3" fill="#2e6da4"/><rect x="24" y="10" width="3" height="3" fill="#2e6da4"/>
    <rect x="17" y="15" width="3" height="3" fill="#2e6da4"/><rect x="24" y="15" width="3" height="3" fill="#2e6da4"/>
    <rect x="17" y="20" width="3" height="3" fill="#2e6da4"/><rect x="24" y="20" width="3" height="3" fill="#2e6da4"/>
    <rect x="18" y="29" width="9" height="7" fill="none" stroke="#2e6da4" stroke-width="1"/>
    <rect x="32" y="16" width="13" height="20" fill="none" stroke="#2e6da4" stroke-width="1.5"/>
    <rect x="34" y="18" width="3" height="3" fill="#2e6da4"/><rect x="39" y="18" width="3" height="3" fill="#2e6da4"/>
    <rect x="34" y="23" width="3" height="3" fill="#2e6da4"/><rect x="39" y="23" width="3" height="3" fill="#2e6da4"/>
    <text x="22" y="52" fill="#2e6da4" font-size="9.5" text-anchor="middle" font-weight="bold">Secure HomeLab Project</text>
  </g>

  <!-- ── THREAT ACTOR LAPTOP (top center) ── -->
  <g transform="translate(327,48)">
    <rect x="4" y="0" width="56" height="38" rx="3" fill="none" stroke="#2e6da4" stroke-width="1.5"/>
    <rect x="7" y="3" width="50" height="32" fill="#c0d8f0"/>
    <circle cx="32" cy="19" r="12" fill="#cc0000"/>
    <circle cx="32" cy="14" r="6.5" fill="white"/>
    <rect x="25" y="20" width="14" height="9" rx="1" fill="white"/>
    <rect x="27" y="21" width="3" height="7" fill="#cc0000"/>
    <rect x="31" y="21" width="3" height="7" fill="#cc0000"/>
    <rect x="35" y="21" width="3" height="7" fill="#cc0000"/>
    <path d="M0,38 L64,38 L64,45 Q64,47 61,47 L3,47 Q0,47 0,45 Z" fill="none" stroke="#2e6da4" stroke-width="1.5"/>
    <text x="32" y="59" fill="#1a1a1a" font-size="11" text-anchor="middle">Threat actor</text>
  </g>

  <!-- ── INTERNET CLOUD (top right) ── -->
  <g transform="translate(610,40)">
    <ellipse cx="60" cy="34" rx="56" ry="26" fill="#f5f5f5" stroke="#888" stroke-width="1.5"/>
    <ellipse cx="30" cy="42" rx="22" ry="14" fill="#f5f5f5" stroke="#888" stroke-width="1.5"/>
    <ellipse cx="90" cy="42" rx="22" ry="14" fill="#f5f5f5" stroke="#888" stroke-width="1.5"/>
    <ellipse cx="60" cy="48" rx="36" ry="12" fill="#f5f5f5" stroke="#888" stroke-width="1.5"/>
    <text x="60" y="40" fill="#1a1a1a" font-size="14" font-weight="bold" text-anchor="middle">Internet</text>
  </g>

  <!-- ── PFSENSE 3-unit stack ── -->
  <g transform="translate(308,154)">
    <rect x="0" y="0"  width="50" height="14" rx="2" fill="none" stroke="#2e6da4" stroke-width="1.5"/>
    <rect x="2" y="3"  width="8"  height="8"  rx="1" fill="none" stroke="#2e6da4" stroke-width="1"/>
    <circle cx="40" cy="7" r="2.5" fill="#2e6da4"/><circle cx="45" cy="7" r="2.5" fill="#2e6da4"/>
    <rect x="0" y="16" width="50" height="14" rx="2" fill="none" stroke="#2e6da4" stroke-width="1.5"/>
    <rect x="2" y="19" width="8"  height="8"  rx="1" fill="none" stroke="#2e6da4" stroke-width="1"/>
    <circle cx="40" cy="23" r="2.5" fill="#2e6da4"/><circle cx="45" cy="23" r="2.5" fill="#2e6da4"/>
    <rect x="0" y="32" width="50" height="14" rx="2" fill="none" stroke="#2e6da4" stroke-width="1.5"/>
    <rect x="2" y="35" width="8"  height="8"  rx="1" fill="none" stroke="#2e6da4" stroke-width="1"/>
    <circle cx="40" cy="39" r="2.5" fill="#2e6da4"/><circle cx="45" cy="39" r="2.5" fill="#2e6da4"/>
    <text x="25" y="60" fill="#1a1a1a" font-size="11" text-anchor="middle">pfSense</text>
  </g>

  <!-- ── ROUTER ── -->
  <g transform="translate(492,156)">
    <rect x="0" y="0" width="72" height="20" rx="3" fill="none" stroke="#2e6da4" stroke-width="1.5"/>
    <circle cx="10" cy="10" r="3" fill="#2e6da4"/><circle cx="20" cy="10" r="3" fill="#2e6da4"/>
    <circle cx="30" cy="10" r="3" fill="#2e6da4"/><circle cx="40" cy="10" r="3" fill="#2e6da4"/>
    <circle cx="50" cy="10" r="3" fill="#2e6da4"/><circle cx="60" cy="10" r="3" fill="#2e6da4"/>
    <text x="36" y="34" fill="#1a1a1a" font-size="11" text-anchor="middle">Router</text>
  </g>

  <!-- ── SERVERS vertical label + bracket ── -->
  <text transform="translate(22,400) rotate(-90)" fill="#555" font-size="11" font-weight="bold" text-anchor="middle" letter-spacing="3">SERVERS</text>
  <path d="M46,190 L38,190 L38,408 L46,408" fill="none" stroke="#aaa" stroke-width="1.5"/>

  <!-- ── VULNERABILITY SCANNER ── -->
  <g transform="translate(56,178)">
    <text x="23" y="-14" fill="#1a1a1a" font-size="10" text-anchor="middle">Vulnerability</text>
    <text x="23" y="-3"  fill="#1a1a1a" font-size="10" text-anchor="middle">scanner</text>
    <rect x="0" y="0"  width="46" height="14" rx="2" fill="none" stroke="#2e6da4" stroke-width="1.5"/>
    <rect x="2" y="3"  width="7"  height="8"  rx="1" fill="none" stroke="#2e6da4" stroke-width="1"/>
    <circle cx="36" cy="7" r="2" fill="#2e6da4"/><circle cx="41" cy="7" r="2" fill="#2e6da4"/>
    <rect x="0" y="16" width="46" height="14" rx="2" fill="none" stroke="#2e6da4" stroke-width="1.5"/>
    <rect x="2" y="19" width="7"  height="8"  rx="1" fill="none" stroke="#2e6da4" stroke-width="1"/>
    <circle cx="36" cy="23" r="2" fill="#2e6da4"/><circle cx="41" cy="23" r="2" fill="#2e6da4"/>
  </g>

  <!-- ── SIEM ── -->
  <g transform="translate(56,278)">
    <text x="23" y="-5" fill="#1a1a1a" font-size="10" text-anchor="middle">SIEM</text>
    <rect x="0" y="0"  width="46" height="14" rx="2" fill="none" stroke="#2e6da4" stroke-width="1.5"/>
    <rect x="2" y="3"  width="7"  height="8"  rx="1" fill="none" stroke="#2e6da4" stroke-width="1"/>
    <circle cx="36" cy="7" r="2" fill="#2e6da4"/><circle cx="41" cy="7" r="2" fill="#2e6da4"/>
    <rect x="0" y="16" width="46" height="14" rx="2" fill="none" stroke="#2e6da4" stroke-width="1.5"/>
    <rect x="2" y="19" width="7"  height="8"  rx="1" fill="none" stroke="#2e6da4" stroke-width="1"/>
    <circle cx="36" cy="23" r="2" fill="#2e6da4"/><circle cx="41" cy="23" r="2" fill="#2e6da4"/>
  </g>

  <!-- ── VPN ── -->
  <g transform="translate(56,360)">
    <text x="23" y="-5" fill="#1a1a1a" font-size="10" text-anchor="middle">VPN</text>
    <rect x="0" y="0"  width="46" height="14" rx="2" fill="none" stroke="#2e6da4" stroke-width="1.5"/>
    <rect x="2" y="3"  width="7"  height="8"  rx="1" fill="none" stroke="#2e6da4" stroke-width="1"/>
    <circle cx="36" cy="7" r="2" fill="#2e6da4"/><circle cx="41" cy="7" r="2" fill="#2e6da4"/>
    <rect x="0" y="16" width="46" height="14" rx="2" fill="none" stroke="#2e6da4" stroke-width="1.5"/>
    <rect x="2" y="19" width="7"  height="8"  rx="1" fill="none" stroke="#2e6da4" stroke-width="1"/>
    <circle cx="36" cy="23" r="2" fill="#2e6da4"/><circle cx="41" cy="23" r="2" fill="#2e6da4"/>
  </g>

  <!-- ── DC01 HIGHLIGHT BOX ── -->
  <rect x="270" y="246" width="152" height="96" rx="8" fill="#dce8f5" stroke="#9ab8d8" stroke-width="1.5"/>

  <!-- ── DC01 DESKTOP (tower + monitor) ── -->
  <g transform="translate(276,253)">
    <rect x="0" y="8"  width="22" height="40" rx="2" fill="none" stroke="#2e6da4" stroke-width="1.5"/>
    <rect x="3" y="12" width="8"  height="5"  rx="1" fill="none" stroke="#2e6da4" stroke-width="1"/>
    <rect x="3" y="20" width="8"  height="5"  rx="1" fill="none" stroke="#2e6da4" stroke-width="1"/>
    <circle cx="11" cy="42" r="2" fill="#2e6da4"/>
    <rect x="28" y="0"  width="50" height="34" rx="3" fill="none" stroke="#2e6da4" stroke-width="1.5"/>
    <rect x="31" y="3"  width="44" height="28" fill="#c0d8f0"/>
    <rect x="49" y="34" width="10" height="7"  fill="none" stroke="#2e6da4" stroke-width="1.5"/>
    <rect x="42" y="41" width="24" height="4"  rx="1" fill="none" stroke="#2e6da4" stroke-width="1.5"/>
    <text x="55" y="58" fill="#1a1a1a" font-size="12" font-weight="bold" text-anchor="middle">DC01</text>
  </g>

  <!-- ── RDP SERVER (right) ── -->
  <g transform="translate(634,258)">
    <ellipse cx="28" cy="26" rx="28" ry="26" fill="none" stroke="#2e6da4" stroke-width="1.5"/>
    <rect x="10" y="12" width="36" height="24" rx="3" fill="#c0d8f0"/>
    <line x1="10" y1="22" x2="46" y2="22" stroke="#2e6da4" stroke-width="1"/>
    <circle cx="18" cy="29" r="3" fill="#2e6da4"/>
    <circle cx="38" cy="29" r="3" fill="#2e6da4"/>
    <text x="28" y="66" fill="#1a1a1a" font-size="11" text-anchor="middle">RDP Server</text>
  </g>

  <!-- ── PC01 ── -->
  <g transform="translate(222,432)">
    <rect x="1" y="-17" width="36" height="15" rx="3" fill="white" stroke="#2e6da4" stroke-width="1.2"/>
    <text x="19" y="-6" fill="#2e6da4" font-size="10" text-anchor="middle" font-weight="bold">PC01</text>
    <rect x="0"  y="8"  width="18" height="32" rx="2" fill="none" stroke="#2e6da4" stroke-width="1.5"/>
    <rect x="2"  y="12" width="7"  height="4"  rx="1" fill="none" stroke="#2e6da4" stroke-width="1"/>
    <circle cx="9" cy="34" r="1.5" fill="#2e6da4"/>
    <rect x="22" y="0"  width="36" height="26" rx="2" fill="none" stroke="#2e6da4" stroke-width="1.5"/>
    <rect x="25" y="3"  width="30" height="20" fill="#c0d8f0"/>
    <rect x="36" y="26" width="8"  height="5"  fill="none" stroke="#2e6da4" stroke-width="1"/>
    <rect x="30" y="31" width="20" height="3"  rx="1" fill="none" stroke="#2e6da4" stroke-width="1"/>
    <path d="M60,24 Q60,18 63,18 Q66,18 66,24 L65,31 Q64,34 63,34 Q62,34 61,31 Z" fill="none" stroke="#2e6da4" stroke-width="1"/>
    <line x1="63" y1="18" x2="63" y2="24" stroke="#2e6da4" stroke-width="0.8"/>
  </g>

  <!-- ── PC02 ── -->
  <g transform="translate(350,432)">
    <rect x="1" y="-17" width="36" height="15" rx="3" fill="white" stroke="#2e6da4" stroke-width="1.2"/>
    <text x="19" y="-6" fill="#2e6da4" font-size="10" text-anchor="middle" font-weight="bold">PC02</text>
    <rect x="0"  y="8"  width="18" height="32" rx="2" fill="none" stroke="#2e6da4" stroke-width="1.5"/>
    <rect x="2"  y="12" width="7"  height="4"  rx="1" fill="none" stroke="#2e6da4" stroke-width="1"/>
    <circle cx="9" cy="34" r="1.5" fill="#2e6da4"/>
    <rect x="22" y="0"  width="36" height="26" rx="2" fill="none" stroke="#2e6da4" stroke-width="1.5"/>
    <rect x="25" y="3"  width="30" height="20" fill="#c0d8f0"/>
    <rect x="36" y="26" width="8"  height="5"  fill="none" stroke="#2e6da4" stroke-width="1"/>
    <rect x="30" y="31" width="20" height="3"  rx="1" fill="none" stroke="#2e6da4" stroke-width="1"/>
    <path d="M60,24 Q60,18 63,18 Q66,18 66,24 L65,31 Q64,34 63,34 Q62,34 61,31 Z" fill="none" stroke="#2e6da4" stroke-width="1"/>
    <line x1="63" y1="18" x2="63" y2="24" stroke="#2e6da4" stroke-width="0.8"/>
  </g>

  <!-- ── PC03 ── -->
  <g transform="translate(478,432)">
    <rect x="1" y="-17" width="36" height="15" rx="3" fill="white" stroke="#2e6da4" stroke-width="1.2"/>
    <text x="19" y="-6" fill="#2e6da4" font-size="10" text-anchor="middle" font-weight="bold">PC03</text>
    <rect x="0"  y="8"  width="18" height="32" rx="2" fill="none" stroke="#2e6da4" stroke-width="1.5"/>
    <rect x="2"  y="12" width="7"  height="4"  rx="1" fill="none" stroke="#2e6da4" stroke-width="1"/>
    <circle cx="9" cy="34" r="1.5" fill="#2e6da4"/>
    <rect x="22" y="0"  width="36" height="26" rx="2" fill="none" stroke="#2e6da4" stroke-width="1.5"/>
    <rect x="25" y="3"  width="30" height="20" fill="#c0d8f0"/>
    <rect x="36" y="26" width="8"  height="5"  fill="none" stroke="#2e6da4" stroke-width="1"/>
    <rect x="30" y="31" width="20" height="3"  rx="1" fill="none" stroke="#2e6da4" stroke-width="1"/>
    <path d="M60,24 Q60,18 63,18 Q66,18 66,24 L65,31 Q64,34 63,34 Q62,34 61,31 Z" fill="none" stroke="#2e6da4" stroke-width="1"/>
    <line x1="63" y1="18" x2="63" y2="24" stroke="#2e6da4" stroke-width="0.8"/>
  </g>

  <!-- ═══════ CONNECTIONS ═══════ -->
  <line x1="359" y1="95"  x2="333" y2="154" stroke="#2e6da4" stroke-width="1.5"/>
  <line x1="358" y1="168" x2="492" y2="164" stroke="#2e6da4" stroke-width="1.5"/>
  <line x1="548" y1="156" x2="644" y2="98"  stroke="#888"    stroke-width="1.5" stroke-dasharray="7,5"/>
  <line x1="333" y1="200" x2="346" y2="246" stroke="#2e6da4" stroke-width="1.5"/>
  <line x1="270" y1="277" x2="102" y2="193" stroke="#2e6da4" stroke-width="1.5" stroke-dasharray="8,5"/>
  <line x1="270" y1="292" x2="102" y2="292" stroke="#2e6da4" stroke-width="1.5" stroke-dasharray="8,5"/>
  <line x1="270" y1="306" x2="102" y2="374" stroke="#2e6da4" stroke-width="1.5" stroke-dasharray="8,5"/>
  <line x1="422" y1="292" x2="634" y2="284" stroke="#2e6da4" stroke-width="1.5" stroke-dasharray="8,5"/>
  <line x1="346" y1="342" x2="346" y2="416" stroke="#2e6da4" stroke-width="1.5" stroke-dasharray="6,4"/>
  <line x1="241" y1="416" x2="516" y2="416" stroke="#2e6da4" stroke-width="1.5" stroke-dasharray="6,4"/>
  <line x1="241" y1="416" x2="241" y2="432" stroke="#2e6da4" stroke-width="1.5" stroke-dasharray="6,4"/>
  <line x1="369" y1="416" x2="369" y2="432" stroke="#2e6da4" stroke-width="1.5" stroke-dasharray="6,4"/>
  <line x1="497" y1="416" x2="497" y2="432" stroke="#2e6da4" stroke-width="1.5" stroke-dasharray="6,4"/>

  <!-- ═══════ PORT LABELS ═══════ -->
  <rect x="338" y="215" width="90" height="13" rx="3" fill="#eef4fb" stroke="#aac4e8" stroke-width="1"/>
  <text x="383" y="224" fill="#2e6da4" font-size="8.5" text-anchor="middle">TCP 443/80 mgmt</text>

  <rect x="130" y="220" width="90" height="13" rx="3" fill="#eef4fb" stroke="#aac4e8" stroke-width="1"/>
  <text x="175" y="229" fill="#2e6da4" font-size="8.5" text-anchor="middle">TCP 445, 139, 135</text>

  <rect x="130" y="279" width="102" height="13" rx="3" fill="#eef4fb" stroke="#aac4e8" stroke-width="1"/>
  <text x="181" y="288" fill="#2e6da4" font-size="8.5" text-anchor="middle">TCP 9997 · UDP 514</text>

  <rect x="130" y="322" width="100" height="13" rx="3" fill="#eef4fb" stroke="#aac4e8" stroke-width="1"/>
  <text x="180" y="331" fill="#2e6da4" font-size="8.5" text-anchor="middle">UDP 1194 (OpenVPN)</text>

  <rect x="480" y="279" width="60" height="13" rx="3" fill="#eef4fb" stroke="#aac4e8" stroke-width="1"/>
  <text x="510" y="288" fill="#2e6da4" font-size="8.5" text-anchor="middle">TCP 3389</text>

  <rect x="350" y="355" width="130" height="24" rx="3" fill="#eef4fb" stroke="#aac4e8" stroke-width="1"/>
  <text x="415" y="365" fill="#2e6da4" font-size="8.5" text-anchor="middle">TCP 53, 88, 389, 445, 3268</text>
  <text x="415" y="376" fill="#2e6da4" font-size="8.5" text-anchor="middle">UDP 53 · 67/68 (DHCP)</text>

  <!-- ═══════ REQUIRED OPEN PORTS TABLE ═══════ -->
  <rect x="28" y="490" width="764" height="200" rx="6" fill="#f8fafd" stroke="#d0dff0" stroke-width="1.5"/>
  <text x="410" y="509" fill="#1a1a1a" font-size="12" font-weight="bold" text-anchor="middle">Required Open Ports</text>
  <line x1="28" y1="514" x2="792" y2="514" stroke="#d0dff0" stroke-width="1"/>

  <text x="50"  y="528" fill="#2e6da4" font-size="10" font-weight="bold">Port</text>
  <text x="115" y="528" fill="#2e6da4" font-size="10" font-weight="bold">Protocol</text>
  <text x="195" y="528" fill="#2e6da4" font-size="10" font-weight="bold">Service</text>
  <text x="350" y="528" fill="#2e6da4" font-size="10" font-weight="bold">Purpose</text>
  <line x1="28" y1="532" x2="792" y2="532" stroke="#e0e8f0" stroke-width="1"/>

  <text x="50"  y="545" fill="#333" font-size="10">53</text>
  <text x="115" y="545" fill="#333" font-size="10">TCP/UDP</text>
  <text x="195" y="545" fill="#333" font-size="10">DNS</text>
  <text x="350" y="545" fill="#333" font-size="10">Domain name resolution — required by every domain-joined machine</text>

  <rect x="28" y="548" width="764" height="13" fill="#f0f5fb"/>
  <text x="50"  y="558" fill="#333" font-size="10">67 / 68</text>
  <text x="115" y="558" fill="#333" font-size="10">UDP</text>
  <text x="195" y="558" fill="#333" font-size="10">DHCP</text>
  <text x="350" y="558" fill="#333" font-size="10">IP address assignment from DHCP server to clients</text>

  <text x="50"  y="572" fill="#333" font-size="10">88</text>
  <text x="115" y="572" fill="#333" font-size="10">TCP/UDP</text>
  <text x="195" y="572" fill="#333" font-size="10">Kerberos</text>
  <text x="350" y="572" fill="#333" font-size="10">Authentication tickets — every domain login and service access</text>

  <rect x="28" y="575" width="764" height="13" fill="#f0f5fb"/>
  <text x="50"  y="585" fill="#333" font-size="10">135</text>
  <text x="115" y="585" fill="#333" font-size="10">TCP</text>
  <text x="195" y="585" fill="#333" font-size="10">RPC Endpoint Mapper</text>
  <text x="350" y="585" fill="#333" font-size="10">RPC-based services: replication, WMI, remote management</text>

  <text x="50"  y="599" fill="#333" font-size="10">389</text>
  <text x="115" y="599" fill="#333" font-size="10">TCP</text>
  <text x="195" y="599" fill="#333" font-size="10">LDAP</text>
  <text x="350" y="599" fill="#333" font-size="10">Active Directory queries — user/computer lookups, Group Policy</text>

  <rect x="28" y="602" width="764" height="13" fill="#f0f5fb"/>
  <text x="50"  y="612" fill="#333" font-size="10">445</text>
  <text x="115" y="612" fill="#333" font-size="10">TCP</text>
  <text x="195" y="612" fill="#333" font-size="10">SMB / SYSVOL</text>
  <text x="350" y="612" fill="#333" font-size="10">Group Policy delivery, SYSVOL replication, file shares</text>

  <text x="50"  y="626" fill="#333" font-size="10">636</text>
  <text x="115" y="626" fill="#333" font-size="10">TCP</text>
  <text x="195" y="626" fill="#333" font-size="10">LDAPS</text>
  <text x="350" y="626" fill="#333" font-size="10">Encrypted LDAP over SSL — secure directory queries</text>

  <rect x="28" y="629" width="764" height="13" fill="#f0f5fb"/>
  <text x="50"  y="639" fill="#333" font-size="10">3268 / 3269</text>
  <text x="115" y="639" fill="#333" font-size="10">TCP</text>
  <text x="195" y="639" fill="#333" font-size="10">Global Catalog</text>
  <text x="350" y="639" fill="#333" font-size="10">Forest-wide LDAP searches (3268 plain, 3269 SSL)</text>

  <text x="50"  y="653" fill="#333" font-size="10">3389</text>
  <text x="115" y="653" fill="#333" font-size="10">TCP</text>
  <text x="195" y="653" fill="#333" font-size="10">RDP</text>
  <text x="350" y="653" fill="#333" font-size="10">Remote Desktop — admin access to servers and workstations</text>

  <rect x="28" y="656" width="764" height="13" fill="#f0f5fb"/>
  <text x="50"  y="666" fill="#333" font-size="10">49152–65535</text>
  <text x="115" y="666" fill="#333" font-size="10">TCP</text>
  <text x="195" y="666" fill="#333" font-size="10">RPC Dynamic Ports</text>
  <text x="350" y="666" fill="#333" font-size="10">AD replication, DFSR, remote management — must be open DC-to-DC</text>

  <text x="50"  y="680" fill="#333" font-size="10">1194</text>
  <text x="115" y="680" fill="#333" font-size="10">UDP</text>
  <text x="195" y="680" fill="#333" font-size="10">OpenVPN</text>
  <text x="350" y="680" fill="#333" font-size="10">VPN tunnel — encrypted remote access to internal network</text>
</svg>
